[2026-03-02T20:00:38.343Z] Pipeline process started.
[2026-03-02T20:00:38.356Z] Downloading YouTube: https://youtube.com/shorts/90-7ISyQWuA?si=7kI8iPC-BBn-Zwib
[2026-03-02T20:00:45.859Z] YouTube download completed.
[2026-03-02T20:00:45.872Z] Extracting audio with FFmpeg...
[2026-03-02T20:00:47.203Z] Audio extraction successful.
[2026-03-02T20:00:47.208Z] Starting transcription...
[2026-03-02T20:00:48.691Z] Starting translation...
[2026-03-02T20:00:51.032Z] Generating segment 1/7: "İran rejimini terrorist ordula..."
[2026-03-02T20:00:53.659Z] Segment 0 saved (53136 bytes).
[2026-03-02T20:00:53.665Z] Generating segment 2/7: "Biz razılaşma əldə etdiyimizə ..."
[2026-03-02T20:00:56.764Z] Segment 1 saved (31968 bytes).
[2026-03-02T20:00:56.769Z] Generating segment 3/7: "Onlar geri qayıtdılar və biz r..."
[2026-03-02T20:00:59.764Z] Segment 2 saved (51408 bytes).
[2026-03-02T20:00:59.769Z] Generating segment 4/7: "bu insanlarla razılaşmağa mümk..."
[2026-03-02T20:01:02.162Z] Segment 3 saved (44496 bytes).
[2026-03-02T20:01:02.167Z] Generating segment 5/7: "çünki o danışıqlar aparmaq qab..."
[2026-03-02T20:01:05.126Z] Segment 4 saved (41040 bytes).
[2026-03-02T20:01:05.129Z] Generating segment 6/7: "Təəssüflər ki, danışıqların əs..."
[2026-03-02T20:01:07.896Z] Segment 5 saved (30816 bytes).
[2026-03-02T20:01:07.901Z] Generating segment 7/7: "Ağ Evdə real problemimiz var...."
[2026-03-02T20:01:10.004Z] Segment 6 saved (17856 bytes).
[2026-03-02T20:01:10.008Z] Running FFmpeg: C:\Users\fullm\Downloads\dubverse-saas\node_modules\ffmpeg-static\ffmpeg.exe -i C:\Users\fullm\Downloads\dubverse-saas\tmp\uploads\a314eb98-363b-4f6a-9469-0549e6fb6f6d\audio.mp3 -i C:\Users\fullm\Downloads\dubverse-saas\tmp\uploads\a314eb98-363b-4f6a-9469-0549e6fb6f6d\segments\seg_0.mp3 -i C:\Users\fullm\Downloads\dubverse-saas\tmp\uploads\a314eb98-363b-4f6a-9469-0549e6fb6f6d\segments\seg_1.mp3 -i C:\Users\fullm\Downloads\dubverse-saas\tmp\uploads\a314eb98-363b-4f6a-9469-0549e6fb6f6d\segments\seg_2.mp3 -i C:\Users\fullm\Downloads\dubverse-saas\tmp\uploads\a314eb98-363b-4f6a-9469-0549e6fb6f6d\segments\seg_3.mp3 -i C:\Users\fullm\Downloads\dubverse-saas\tmp\uploads\a314eb98-363b-4f6a-9469-0549e6fb6f6d\segments\seg_4.mp3 -i C:\Users\fullm\Downloads\dubverse-saas\tmp\uploads\a314eb98-363b-4f6a-9469-0549e6fb6f6d\segments\seg_5.mp3 -i C:\Users\fullm\Downloads\dubverse-saas\tmp\uploads\a314eb98-363b-4f6a-9469-0549e6fb6f6d\segments\seg_6.mp3 -filter_complex [1:a]aformat=sample_rates=44100:channel_layouts=stereo,adelay=0|0[s0];[2:a]aformat=sample_rates=44100:channel_layouts=stereo,adelay=6200|6200[s1];[3:a]aformat=sample_rates=44100:channel_layouts=stereo,adelay=11980|11980[s2];[4:a]aformat=sample_rates=44100:channel_layouts=stereo,adelay=15260|15260[s3];[5:a]aformat=sample_rates=44100:channel_layouts=stereo,adelay=19760|19760[s4];[6:a]aformat=sample_rates=44100:channel_layouts=stereo,adelay=25520|25520[s5];[7:a]aformat=sample_rates=44100:channel_layouts=stereo,adelay=31040|31040[s6];[0:a]aformat=sample_rates=44100:channel_layouts=stereo,volume=0[bg];[bg][s0][s1][s2][s3][s4][s5][s6]amix=inputs=8:duration=first:dropout_transition=999,volume=16[out] -map [out] -acodec libmp3lame -ar 44100 -b:a 192k -y C:\Users\fullm\Downloads\dubverse-saas\tmp\uploads\a314eb98-363b-4f6a-9469-0549e6fb6f6d\dubbed_audio.mp3
[2026-03-02T20:01:10.350Z] FFmpeg Err: Input #0, mp3, from 'C:\Users\fullm\Downloads\dubverse-saas\tmp\uploads\a314eb98-363b-4f6a-9469-0549e6fb6f6d\audio.mp3':
  Metadata:
    major_brand     : mp42
    minor_version   : 0
    compatible_brands: isommp42
    encoder         : Lavf60.16.100
  Duration: 00:00:33.33, start: 0.025057, bitrate: 128 kb/s
  Stream #0:0: Audio: mp3, 44100 Hz, stereo, fltp, 128 kb/s
    Metadata:
      encoder         : Lavc60.31
[mp3 @ 000002e77c786a00] Estimating duration from bitrate, this may be inaccurate
Input #1, mp3, from 'C:\Users\fullm\Downloads\dubverse-saas\tmp\uploads\a314eb98-363b-4f6a-9469-0549e6fb6f6d\segments\seg_0.mp3':
  Duration: 00:00:08.86, start: 0.000000, bitrate: 48 kb/s
  Stream #1:0: Audio: mp3, 24000 Hz, mono, fltp, 48 kb/s
[mp3 @ 000002e77c78b4c0] Estimating duration from bitrate, this may be inaccurate
Input #2, mp3, from 'C:\Users\fullm\Downloads\dubverse-saas\tmp\uploads\a314eb98-363b-4f6a-9469-0549e6fb6f6d\segments\seg_1.mp3':
  Duration: 00:00:05.33, start: 0.000000, bitrate: 48 kb/s
  Stream #2:0: Audio: mp3, 24000 Hz, mono, fltp, 48 kb/s
[mp3 @ 000002e77c7d5b80] Estimating duration from bitrate, this may be inaccurate
Input #3, mp3, from 'C:\Users\fullm\Downloads\dubverse-saas\tmp\uploads\a314eb98-363b-4f6a-9469-0549e6fb6f6d\segments\seg_2.mp3':
  Duration: 00:00:08.57, start: 0.000000, bitrate: 48 kb/s
  Stream #3:0: Audio: mp3, 24000 Hz, mono, fltp, 48 kb/s
[mp3 @ 000002e77c80a000] Estimating duration from bitrate, this may be inaccurate
Input #4, mp3, from 'C:\Users\fullm\Downloads\dubverse-saas\tmp\uploads\a314eb98-363b-4f6a-9469-0549e6fb6f6d\segments\seg_3.mp3':
  Duration: 00:00:07.42, start: 0.000000, bitrate: 48 kb/s
  Stream #4:0: Audio: mp3, 24000 Hz, mono, fltp, 48 kb/s
[mp3 @ 000002e77c829180] Estimating duration from bitrate, this may be inaccurate
Input #5, mp3, from 'C:\Users\fullm\Downloads\dubverse-saas\tmp\uploads\a314eb98-363b-4f6a-9469-0549e6fb6f6d\segments\seg_4.mp3':
  Duration: 00:00:06.84, start: 0.000000, bitrate: 48 kb/s
  Stream #5:0: Audio: mp3, 24000 Hz, mono, fltp, 48 kb/s
[mp3 @ 000002e77c834d00] Estimating duration from bitrate, this may be inaccurate
Input #6, mp3, from 'C:\Users\fullm\Downloads\dubverse-saas\tmp\uploads\a314eb98-363b-4f6a-9469-0549e6fb6f6d\segments\seg_5.mp3':
  Duration: 00:00:05.14, start: 0.000000, bitrate: 48 kb/s
  Stream #6:0: Audio: mp3, 24000 Hz, mono, fltp, 48 kb/s
[mp3 @ 000002e77c84e500] Estimating duration from bitrate, this may be inaccurate
Input #7, mp3, from 'C:\Users\fullm\Downloads\dubverse-saas\tmp\uploads\a314eb98-363b-4f6a-9469-0549e6fb6f6d\segments\seg_6.mp3':
  Duration: 00:00:02.98, start: 0.000000, bitrate: 48 kb/s
  Stream #7:0: Audio: mp3, 24000 Hz, mono, fltp, 48 kb/s
Stream mapping:
  Stream #0:0 (mp3float) -> aformat:default
  Stream #1:0 (mp3float) -> aformat:default
  Stream #2:0 (mp3float) -> aformat:default
  Stream #3:0 (mp3float) -> aformat:default
  Stream #4:0 (mp3float) -> aformat:default
  Stream #5:0 (mp3float) -> aformat:default
  Stream #6:0 (mp3float) -> aformat:default
  Stream #7:0 (mp3float) -> aformat:default
  volume:default -> Stream #0:0 (libmp3lame)
Output #0, mp3, to 'C:\Users\fullm\Downloads\dubverse-saas\tmp\uploads\a314eb98-363b-4f6a-9469-0549e6fb6f6d\dubbed_audio.mp3':
  Metadata:
    major_brand     : mp42
    minor_version   : 0
    compatible_brands: isommp42
    TSSE            : Lavf60.16.100
  Stream #0:0: Audio: mp3, 44100 Hz, stereo, fltp, 192 kb/s
    Metadata:
      encoder         : Lavc60.31.102 libmp3lame
size=       0kB time=N/A bitrate=N/A speed=N/A    
[2026-03-02T20:01:10.822Z] FFmpeg Err: size=     256kB time=00:00:19.46 bitrate= 107.8kbits/s speed=38.5x    
[2026-03-02T20:01:11.124Z] FFmpeg Err: [out#0/mp3 @ 000002e77c887300] video:0kB audio:781kB subtitle:0kB other streams:0kB global headers:0kB muxing overhead: 0.095503%
size=     782kB time=00:00:33.28 bitrate= 192.5kbits/s speed=40.9x    

[2026-03-02T20:01:11.139Z] Starting final video/audio muxing...
[2026-03-02T20:01:11.143Z] Running FFmpeg: C:\Users\fullm\Downloads\dubverse-saas\node_modules\ffmpeg-static\ffmpeg.exe -i C:\Users\fullm\Downloads\dubverse-saas\tmp\uploads\a314eb98-363b-4f6a-9469-0549e6fb6f6d\video.mp4 -i C:\Users\fullm\Downloads\dubverse-saas\tmp\uploads\a314eb98-363b-4f6a-9469-0549e6fb6f6d\dubbed_audio.mp3 -map 0:v:0 -map 1:a:0 -c:v copy -c:a aac -b:a 192k -shortest -y C:\Users\fullm\Downloads\dubverse-saas\tmp\uploads\a314eb98-363b-4f6a-9469-0549e6fb6f6d\final_dubbed.mp4
[2026-03-02T20:01:11.229Z] FFmpeg Err: Input #0, mov,mp4,m4a,3gp,3g2,mj2, from 'C:\Users\fullm\Downloads\dubverse-saas\tmp\uploads\a314eb98-363b-4f6a-9469-0549e6fb6f6d\video.mp4':
  Metadata:
    major_brand     : mp42
    minor_version   : 0
    compatible_brands: isommp42
    creation_time   : 2026-03-02T18:15:48.000000Z
    encoder         : Google
  Duration: 00:00:33.30, start: 0.000000, bitrate: 314 kb/s
  Stream #0:0[0x1](und): Video: h264 (Main) (avc1 / 0x31637661), yuv420p(tv, bt709, progressive), 360x640 [SAR 1:1 DAR 9:16], 264 kb/s, 25 fps, 25 tbr, 12800 tbn (default)
    Metadata:
      creation_time   : 2026-03-02T18:15:48.000000Z
      handler_name    : 
[2026-03-02T20:01:11.239Z] FFmpeg Err: ISO Media file produced by Google Inc. Created on: 03/02/2026.
      vendor_id       : [0][0][0][0]
  Stream #0:1[0x2](eng): Audio: aac (HE-AAC) (mp4a / 0x6134706D), 44100 Hz, stereo, fltp, 48 kb/s (default)
    Metadata:
      creation_time   : 2026-03-02T18:15:48.000000Z
      handler_name    : ISO Media file produced by Google Inc. Created on: 03/02/2026.
      vendor_id       : [0][0][0][0]
Input #1, mp3, from 'C:\Users\fullm\Downloads\dubverse-saas\tmp\uploads\a314eb98-363b-4f6a-9469-0549e6fb6f6d\dubbed_audio.mp3':
  Metadata:
    major_brand     : mp42
    minor_version   : 0
    compatible_brands: isommp42
    encoder         : Lavf60.16.100
  Duration: 00:00:33.33, start: 0.025057, bitrate: 192 kb/s
  Stream #1:0: Audio: mp3, 44100 Hz, stereo, fltp, 192 kb/s
    Metadata:
      encoder         : Lavc60.31
Stream mapping:
  Stream #0:0 -> #0:0 (copy)
  Stream #1:0 -> #0:1 (mp3 (mp3float) -> aac (native))
Output #0, mp4, to 'C:\Users\fullm\Downloads\dubverse-saas\tmp\uploads\a314eb98-363b-4f6a-9469-0549e6fb6f6d\final_dubbed.mp4':
  Metadata:
    major_brand     : mp42
    minor_version   : 0
    compatible_brands: isommp42
    encoder         : Lavf60.16.100
  Stream #0:0(und): Video: h264 (Main) (avc1 / 0x31637661), yuv420p(tv, bt709, progressive), 360x640 [SAR 1:1 DAR 9:16], q=2-31, 264 kb/s, 25 fps, 25 tbr, 12800 tbn (default)
    Metadata:
      creation_time   : 2026-03-02T18:15:48.000000Z
      handler_name    : ISO Media file produced by Google Inc. Created on: 03/02/2026.
      vendor_id       : [0][0][0][0]
  Stream #0:1: Audio: aac (LC) (mp4a / 0x6134706D), 44100 Hz, stereo, fltp, 192 kb/s
    Metadata:
      encoder         : 
[2026-03-02T20:01:11.256Z] FFmpeg Err: Lavc60.31.102 aac
size=       0kB time=N/A bitrate=N/A speed=N/A    
[2026-03-02T20:01:11.976Z] FFmpeg Err: size=     256kB time=00:00:06.08 bitrate= 345.0kbits/s speed=12.1x    
[2026-03-02T20:01:12.251Z] FFmpeg Err: size=     512kB time=00:00:12.12 bitrate= 346.1kbits/s speed=  12x    
[2026-03-02T20:01:12.820Z] FFmpeg Err: size=     768kB time=00:00:19.04 bitrate= 330.5kbits/s speed=12.6x    
[2026-03-02T20:01:13.255Z] FFmpeg Err: size=    1280kB time=00:00:25.00 bitrate= 419.4kbits/s speed=12.4x    
[2026-03-02T20:01:13.768Z] FFmpeg Err: [out#0/mp4 @ 000001bc0c731f00] video:1071kB audio:698kB subtitle:0kB other streams:0kB global headers:0kB muxing overhead: 1.387432%
size=    1794kB time=00:00:33.25 bitrate= 442.0kbits/s speed=13.2x    
[aac @ 000001bc0c727cc0] Qavg: 15424.254

[2026-03-02T20:01:13.814Z] Pipeline finished successfully!
